<?xml version="1.0" encoding="utf-8"?>
<!-- Generator: Adobe Illustrator 16.2.1, SVG Export Plug-In . SVG Version: 6.00 Build 0)  -->
<!DOCTYPE svg PUBLIC "-//W3C//DTD SVG 1.1 Tiny//EN" "http://www.w3.org/Graphics/SVG/1.1/DTD/svg11-tiny.dtd">
<svg version="1.1" baseProfile="tiny" id="Layer_1" xmlns="http://www.w3.org/2000/svg" xmlns:xlink="http://www.w3.org/1999/xlink"
	 x="0px" y="0px" width="300px" height="64.73px" viewBox="0 0 300 64.73" xml:space="preserve">
<g>
	<path fill="#FFFFFF" d="M26.693,1.478c3.988,0,7.7,0.631,11.129,1.906c3.438,1.27,6.417,3.178,8.931,5.72
		c2.515,2.534,4.476,5.711,5.891,9.534c1.411,3.809,2.127,8.285,2.127,13.426c0,4.507-0.584,8.661-1.741,12.481
		c-1.147,3.807-2.895,7.104-5.237,9.886c-2.336,2.771-5.259,4.941-8.758,6.54c-3.488,1.589-7.603,2.38-12.342,2.38H0V1.478H26.693z
		 M25.744,51.914c1.956,0,3.861-0.324,5.721-0.953c1.839-0.641,3.491-1.695,4.932-3.168c1.436-1.479,2.593-3.389,3.465-5.753
		c0.866-2.376,1.302-5.265,1.302-8.67c0-3.123-0.31-5.937-0.911-8.453c-0.609-2.514-1.602-4.663-2.989-6.454
		c-1.391-1.789-3.228-3.164-5.503-4.114c-2.278-0.96-5.097-1.435-8.454-1.435H13.6v39H25.744z"/>
	<path fill="#FFFFFF" d="M60.922,25.135c1.271-1.907,2.883-3.438,4.854-4.593c1.961-1.159,4.166-1.98,6.627-2.472
		c2.458-0.483,4.917-0.737,7.411-0.737c2.248,0,4.533,0.152,6.845,0.473c2.311,0.324,4.422,0.942,6.327,1.864
		c1.905,0.932,3.466,2.206,4.684,3.863c1.208,1.639,1.816,3.818,1.816,6.536v23.311c0,2.024,0.117,3.962,0.345,5.806
		c0.228,1.852,0.637,3.24,1.21,4.165H88.562c-0.229-0.699-0.424-1.4-0.561-2.125c-0.149-0.727-0.246-1.456-0.307-2.208
		c-1.957,2.02-4.268,3.43-6.929,4.241c-2.656,0.812-5.371,1.219-8.157,1.219c-2.125,0-4.123-0.259-5.972-0.781
		c-1.847-0.523-3.464-1.329-4.849-2.426c-1.385-1.102-2.472-2.491-3.25-4.161c-0.781-1.674-1.167-3.674-1.167-5.987
		c0-2.531,0.441-4.627,1.339-6.271c0.893-1.654,2.045-2.959,3.461-3.948c1.423-0.979,3.042-1.715,4.866-2.202
		c1.814-0.498,3.646-0.883,5.496-1.178c1.849-0.284,3.67-0.514,5.457-0.688c1.792-0.181,3.387-0.443,4.772-0.781
		c1.375-0.352,2.483-0.854,3.288-1.522c0.81-0.662,1.188-1.631,1.132-2.895c0-1.332-0.226-2.394-0.657-3.161
		c-0.432-0.784-1.012-1.394-1.733-1.824c-0.718-0.438-1.553-0.729-2.509-0.862c-0.959-0.146-1.987-0.224-3.075-0.224
		c-2.429,0-4.334,0.515-5.722,1.562c-1.387,1.043-2.194,2.765-2.425,5.204H58.748C58.926,29.44,59.649,27.038,60.922,25.135z
		 M85.23,42.507c-0.784,0.26-1.618,0.478-2.517,0.655c-0.896,0.167-1.839,0.31-2.814,0.431c-0.979,0.11-1.969,0.259-2.95,0.438
		c-0.921,0.172-1.837,0.4-2.725,0.689c-0.898,0.283-1.68,0.681-2.337,1.172c-0.67,0.481-1.205,1.105-1.611,1.861
		c-0.396,0.751-0.606,1.705-0.606,2.862c0,1.096,0.21,2.015,0.606,2.766c0.406,0.762,0.956,1.35,1.649,1.78
		c0.682,0.427,1.504,0.741,2.425,0.914c0.923,0.172,1.878,0.253,2.861,0.253c2.423,0,4.296-0.406,5.627-1.207
		c1.33-0.812,2.312-1.774,2.946-2.902c0.642-1.132,1.025-2.273,1.17-3.43c0.142-1.152,0.226-2.071,0.226-2.767V41.42
		C86.659,41.893,86.009,42.242,85.23,42.507z"/>
	<path fill="#FFFFFF" d="M132.673,1.478c3.87,0,7.155,0.562,9.875,1.687c2.722,1.124,4.935,2.613,6.627,4.463
		c1.703,1.851,2.956,3.963,3.726,6.33c0.781,2.367,1.175,4.825,1.175,7.359c0,2.494-0.394,4.928-1.175,7.328
		c-0.771,2.392-2.022,4.521-3.726,6.367c-1.692,1.845-3.905,3.334-6.627,4.466c-2.72,1.121-6.005,1.688-9.875,1.688h-14.301v22.185
		h-13.606V1.478H132.673z M128.946,30.593c1.555,0,3.057-0.111,4.503-0.346c1.443-0.228,2.717-0.682,3.816-1.347
		c1.091-0.659,1.974-1.604,2.641-2.819c0.662-1.21,1.002-2.798,1.002-4.765c0-1.966-0.34-3.549-1.002-4.762
		c-0.667-1.219-1.55-2.148-2.641-2.816c-1.099-0.665-2.373-1.111-3.816-1.339c-1.446-0.236-2.948-0.349-4.503-0.349h-10.574v18.541
		L128.946,30.593L128.946,30.593z"/>
	<path fill="#FFFFFF" d="M158.924,25.135c1.274-1.907,2.887-3.438,4.855-4.593c1.959-1.159,4.172-1.98,6.628-2.472
		c2.456-0.483,4.921-0.737,7.413-0.737c2.248,0,4.531,0.152,6.84,0.473c2.312,0.324,4.424,0.942,6.328,1.864
		c1.908,0.932,3.46,2.206,4.678,3.863c1.217,1.639,1.826,3.818,1.826,6.536v23.311c0,2.024,0.111,3.962,0.346,5.806
		c0.229,1.852,0.635,3.24,1.207,4.165h-12.472c-0.233-0.699-0.427-1.4-0.563-2.125c-0.158-0.727-0.248-1.456-0.31-2.208
		c-1.958,2.02-4.272,3.43-6.927,4.241c-2.664,0.812-5.379,1.219-8.154,1.219c-2.137,0-4.119-0.259-5.971-0.781
		c-1.854-0.523-3.461-1.329-4.857-2.426c-1.379-1.102-2.465-2.491-3.246-4.161c-0.781-1.674-1.168-3.674-1.168-5.987
		c0-2.531,0.447-4.627,1.34-6.271c0.893-1.654,2.051-2.959,3.461-3.948c1.42-0.979,3.034-1.715,4.865-2.202
		c1.816-0.498,3.648-0.883,5.496-1.178c1.847-0.284,3.663-0.514,5.459-0.688c1.787-0.181,3.379-0.443,4.77-0.781
		c1.375-0.352,2.478-0.854,3.289-1.522c0.812-0.662,1.183-1.631,1.127-2.895c0-1.332-0.225-2.394-0.649-3.161
		c-0.437-0.784-1.011-1.394-1.734-1.824c-0.722-0.438-1.563-0.729-2.508-0.862c-0.964-0.146-1.983-0.224-3.08-0.224
		c-2.42,0-4.333,0.515-5.719,1.562c-1.386,1.043-2.197,2.765-2.425,5.204h-12.311C156.93,29.44,157.66,27.038,158.924,25.135z
		 M183.234,42.507c-0.781,0.26-1.613,0.478-2.519,0.655c-0.893,0.167-1.825,0.31-2.815,0.431c-0.979,0.11-1.963,0.259-2.947,0.438
		c-0.924,0.172-1.837,0.4-2.73,0.689c-0.893,0.283-1.674,0.681-2.334,1.172c-0.664,0.481-1.197,1.105-1.604,1.861
		c-0.404,0.751-0.607,1.705-0.607,2.862c0,1.096,0.203,2.015,0.607,2.766c0.406,0.762,0.955,1.35,1.645,1.78
		c0.689,0.427,1.502,0.741,2.426,0.914c0.924,0.172,1.883,0.253,2.861,0.253c2.426,0,4.309-0.406,5.633-1.207
		c1.33-0.812,2.31-1.774,2.943-2.902c0.639-1.132,1.025-2.273,1.166-3.43c0.146-1.152,0.225-2.071,0.225-2.767V41.42
		C184.66,41.893,184.016,42.242,183.234,42.507z"/>
	<path fill="#FFFFFF" d="M205.027,25.135c1.264-1.907,2.888-3.438,4.846-4.593c1.969-1.159,4.182-1.98,6.637-2.472
		c2.457-0.483,4.928-0.737,7.408-0.737c2.254,0,4.537,0.152,6.846,0.473c2.31,0.324,4.424,0.942,6.327,1.864
		c1.897,0.932,3.46,2.206,4.679,3.863c1.219,1.639,1.816,3.818,1.816,6.536v23.311c0,2.024,0.122,3.962,0.346,5.806
		c0.238,1.852,0.633,3.24,1.217,4.165h-12.477c-0.229-0.699-0.427-1.4-0.564-2.125c-0.15-0.727-0.241-1.456-0.303-2.208
		c-1.959,2.02-4.272,3.43-6.938,4.241c-2.654,0.812-5.373,1.219-8.145,1.219c-2.136,0-4.13-0.259-5.978-0.781
		c-1.847-0.523-3.466-1.329-4.851-2.426c-1.387-1.102-2.467-2.491-3.254-4.161c-0.781-1.674-1.172-3.674-1.172-5.987
		c0-2.531,0.451-4.627,1.35-6.271c0.894-1.654,2.051-2.959,3.461-3.948c1.421-0.979,3.039-1.715,4.855-2.202
		c1.816-0.498,3.653-0.883,5.501-1.178c1.847-0.284,3.669-0.514,5.46-0.688c1.795-0.181,3.373-0.443,4.764-0.781
		c1.386-0.352,2.486-0.854,3.289-1.522c0.812-0.662,1.188-1.631,1.125-2.895c0-1.332-0.213-2.394-0.645-3.161
		c-0.431-0.784-1.01-1.394-1.729-1.824c-0.721-0.438-1.563-0.729-2.518-0.862c-0.949-0.146-1.979-0.224-3.074-0.224
		c-2.422,0-4.334,0.515-5.715,1.562c-1.39,1.043-2.197,2.765-2.436,5.204h-12.299C203.033,29.44,203.76,27.038,205.027,25.135z
		 M229.327,42.507c-0.771,0.26-1.608,0.478-2.507,0.655c-0.894,0.167-1.836,0.31-2.82,0.431c-0.984,0.11-1.953,0.259-2.943,0.438
		c-0.924,0.172-1.836,0.4-2.729,0.689c-0.895,0.283-1.676,0.681-2.346,1.172c-0.653,0.481-1.191,1.105-1.594,1.861
		c-0.41,0.751-0.607,1.705-0.607,2.862c0,1.096,0.197,2.015,0.607,2.766c0.401,0.762,0.949,1.35,1.646,1.78
		c0.69,0.427,1.502,0.741,2.426,0.914c0.924,0.172,1.873,0.253,2.856,0.253c2.431,0,4.303-0.406,5.627-1.207
		c1.34-0.812,2.312-1.774,2.957-2.902c0.636-1.132,1.021-2.273,1.162-3.43c0.144-1.152,0.213-2.071,0.213-2.767V41.42
		C230.764,41.893,230.109,42.242,229.327,42.507z"/>
	<path fill="#FFFFFF" d="M262.219,48.094c0.75,1.456,1.745,2.623,2.993,3.512c1.243,0.897,2.7,1.558,4.374,2.005
		c1.674,0.425,3.41,0.634,5.201,0.634c1.207,0,2.512-0.092,3.896-0.3c1.381-0.192,2.693-0.589,3.901-1.167
		c1.207-0.568,2.217-1.369,3.028-2.385c0.812-1.004,1.214-2.299,1.214-3.856c0-1.675-0.533-3.034-1.599-4.068
		c-1.082-1.047-2.478-1.908-4.207-2.599c-1.735-0.695-3.699-1.3-5.887-1.816c-2.201-0.527-4.424-1.108-6.678-1.739
		c-2.314-0.579-4.566-1.282-6.764-2.116c-2.188-0.845-4.155-1.931-5.892-3.255c-1.729-1.33-3.137-2.986-4.2-4.983
		c-1.072-1.992-1.604-4.403-1.604-7.232c0-3.185,0.68-5.941,2.035-8.28c1.358-2.334,3.13-4.288,5.331-5.841
		c2.191-1.565,4.679-2.726,7.453-3.479C267.586,0.379,270.361,0,273.139,0c3.236,0,6.332,0.363,9.314,1.084
		c2.984,0.727,5.623,1.891,7.926,3.52c2.314,1.61,4.141,3.679,5.512,6.188c1.354,2.511,2.029,5.562,2.029,9.15h-13.168
		c-0.116-1.859-0.507-3.387-1.172-4.604c-0.66-1.208-1.543-2.159-2.648-2.854c-1.091-0.692-2.35-1.186-3.766-1.475
		c-1.42-0.292-2.963-0.434-4.633-0.434c-1.102,0-2.197,0.113-3.293,0.353c-1.102,0.227-2.096,0.627-2.994,1.207
		c-0.893,0.579-1.628,1.303-2.201,2.164c-0.589,0.865-0.873,1.97-0.873,3.293c0,1.217,0.229,2.205,0.695,2.951
		c0.462,0.751,1.365,1.443,2.734,2.083c1.35,0.634,3.228,1.258,5.623,1.902c2.395,0.635,5.534,1.444,9.406,2.423
		c1.157,0.233,2.756,0.655,4.807,1.262c2.055,0.604,4.084,1.57,6.104,2.9c2.029,1.328,3.775,3.104,5.252,5.332
		C299.26,38.67,300,41.51,300,44.972c0,2.83-0.548,5.47-1.645,7.896c-1.103,2.425-2.74,4.517-4.896,6.276
		c-2.166,1.756-4.855,3.142-8.059,4.114c-3.2,0.984-6.926,1.472-11.137,1.472c-3.41,0-6.718-0.416-9.926-1.252
		c-3.206-0.838-6.033-2.151-8.488-3.942c-2.455-1.792-4.408-4.081-5.851-6.846c-1.44-2.771-2.142-6.063-2.081-9.88h13.167
		C261.086,44.892,261.467,46.651,262.219,48.094z"/>
</g>
</svg>
